<svg width="52" height="40" viewBox="0 0 33 21" fill="none" xmlns="http://www.w3.org/2000/svg">
<g clip-path="url(#clip0_15_3)">
<path d="M6.79931 7.48004C7.11691 7.37418 7.45567 7.31772 7.80714 7.31772C9.3457 7.31772 10.6302 8.41023 10.9238 9.86269L13.1046 9.41806C12.6049 6.95072 10.4227 5.09315 7.80714 5.09315C7.20724 5.09315 6.63275 5.19055 6.09355 5.37122L6.79931 7.48004Z" fill="white"/>
<path d="M4.22609 14.5461L5.70113 12.8791C5.04336 12.2962 4.62838 11.445 4.62838 10.4965C4.62838 9.54934 5.04336 8.6982 5.70113 8.11665L4.22609 6.44823C3.10817 7.43912 2.4024 8.88593 2.4024 10.4965C2.4024 12.1084 3.10817 13.5552 4.22609 14.5461" fill="white"/>
<path d="M10.9238 11.1345C10.6288 12.5855 9.3457 13.6766 7.80855 13.6766C7.45567 13.6766 7.11549 13.6202 6.79931 13.5129L6.09355 15.6245C6.63275 15.8038 7.20865 15.9012 7.80855 15.9012C10.4213 15.9012 12.6021 14.0464 13.1046 11.5819L10.9238 11.1345Z" fill="white"/>
<path d="M15.0115 12.9483C14.9396 12.8325 14.8436 12.6476 14.7843 12.5107C14.4385 11.709 14.4229 10.879 14.7137 10.0829C15.0341 9.20917 15.6467 8.54152 16.4386 8.19993C17.4337 7.77224 18.5333 7.85552 19.4875 8.42154C20.093 8.76877 20.5221 9.30515 20.8482 10.0646C20.8891 10.1619 20.9258 10.265 20.9625 10.3539L15.0115 12.9483ZM16.999 9.48865C16.2918 9.79213 15.9276 10.4555 16.0038 11.2319L18.9963 9.94316C18.4811 9.33903 17.812 9.13859 16.999 9.48865V9.48865ZM19.3689 12.2919C19.3675 12.2919 19.3675 12.2933 19.3675 12.2933L19.3054 12.251C19.1261 12.5404 18.8481 12.7761 18.4966 12.9285C17.8275 13.2193 17.2079 13.1445 16.7618 12.7535L16.7209 12.8156C16.7209 12.8156 16.7209 12.8142 16.7195 12.8142L15.9601 13.9505C16.1492 14.0817 16.3511 14.1918 16.5628 14.2808C17.4013 14.6294 18.2595 14.6125 19.105 14.2455C19.7162 13.9801 20.1961 13.5764 20.5235 13.064L19.3689 12.2919ZM23.0417 6.52869V12.8438L24.0241 13.2419L23.4666 14.5433L22.3825 14.0916C22.1397 13.9858 21.9732 13.8248 21.849 13.6428C21.729 13.4579 21.6401 13.2024 21.6401 12.8608V6.52869H23.0417ZM25.5853 11.2361C25.5853 10.6983 25.8238 10.2156 26.1993 9.88811L25.1915 8.76454C24.5083 9.36867 24.0778 10.2509 24.0778 11.2333C24.0763 12.2171 24.5069 13.1007 25.1886 13.7049L26.195 12.5813C25.821 12.2524 25.5853 11.7725 25.5853 11.2361V11.2361ZM27.3751 13.0273C27.1775 13.0273 26.9855 12.9935 26.8076 12.9342L26.3263 14.3641C26.6552 14.4742 27.0067 14.5348 27.3737 14.5348C28.9687 14.5363 30.2998 13.4042 30.6089 11.9009L29.1296 11.5989C28.9616 12.4162 28.2403 13.0288 27.3751 13.0273V13.0273ZM27.3793 7.93739C27.0137 7.93739 26.6623 7.99667 26.3334 8.10536L26.8105 9.53664C26.9897 9.47736 27.1803 9.44489 27.3779 9.44489C28.2446 9.44631 28.9673 10.0617 29.131 10.8804L30.6103 10.5812C30.3068 9.07507 28.9757 7.9388 27.3793 7.93739V7.93739Z" fill="white"/>
</g>
<defs>
<clipPath id="clip0_15_3">
<rect width="33" height="21" fill="white"/>
</clipPath>
</defs>
</svg>
